<svg width="16" height="14" viewBox="0 0 16 14" fill="none" xmlns="http://www.w3.org/2000/svg">
<path d="M0.952146 7.61717H12.2446L8.78831 11.7685C8.70828 11.8648 8.64801 11.9759 8.61092 12.0955C8.57383 12.2151 8.56066 12.3408 8.57215 12.4654C8.59537 12.7172 8.71764 12.9494 8.91209 13.1111C9.10653 13.2727 9.35721 13.3504 9.60899 13.3272C9.86076 13.304 10.093 13.1817 10.2546 12.9873L15.0153 7.2744C15.0474 7.22896 15.076 7.18122 15.101 7.13158C15.101 7.08397 15.1486 7.0554 15.1677 7.0078C15.2108 6.89863 15.2334 6.78241 15.2343 6.66503C15.2334 6.54764 15.2108 6.43142 15.1677 6.32225C15.1677 6.27465 15.1201 6.24608 15.101 6.19847C15.076 6.14883 15.0474 6.10109 15.0153 6.05565L10.2546 0.342775C10.1651 0.235294 10.053 0.148858 9.92627 0.0896142C9.79955 0.0303707 9.66134 -0.000225346 9.52146 1.81894e-06C9.29899 -0.000432848 9.08339 0.0770484 8.91209 0.218995C8.81567 0.298927 8.73598 0.397094 8.67756 0.507873C8.61915 0.618653 8.58316 0.739869 8.57166 0.864578C8.56016 0.989287 8.57338 1.11504 8.61056 1.23463C8.64773 1.35423 8.70814 1.46531 8.78831 1.56152L12.2446 5.71288H0.952146C0.699621 5.71288 0.457439 5.81319 0.278877 5.99176C0.100315 6.17032 0 6.4125 0 6.66503C0 6.91755 0.100315 7.15973 0.278877 7.33829C0.457439 7.51686 0.699621 7.61717 0.952146 7.61717Z" fill="#FAF3FE"/>
</svg>
