<svg width="16" height="14" viewBox="0 0 16 14" fill="none" xmlns="http://www.w3.org/2000/svg">
<path d="M14.2822 5.71413L2.98977 5.71413L6.44607 1.56277C6.52609 1.46649 6.58637 1.35539 6.62346 1.23582C6.66054 1.11625 6.67372 0.990536 6.66222 0.865871C6.63901 0.614099 6.51673 0.38186 6.32229 0.220243C6.12784 0.0586281 5.87716 -0.0191259 5.62539 0.00408745C5.37362 0.0273008 5.14138 0.14958 4.97976 0.344024L0.219029 6.0569C0.187 6.10234 0.158358 6.15008 0.133336 6.19972C0.133336 6.24733 0.0857286 6.27589 0.0666866 6.3235C0.0235291 6.43267 0.000932693 6.54888 3.62396e-05 6.66627C0.000932693 6.78366 0.0235291 6.89987 0.0666866 7.00905C0.0666866 7.05665 0.114293 7.08522 0.133336 7.13283C0.158358 7.18247 0.187 7.23021 0.219029 7.27565L4.97976 12.9885C5.06928 13.096 5.18139 13.1824 5.3081 13.2417C5.43482 13.3009 5.57303 13.3315 5.71291 13.3313C5.93538 13.3317 6.15098 13.2543 6.32229 13.1123C6.4187 13.0324 6.4984 12.9342 6.55681 12.8234C6.61523 12.7126 6.65122 12.5914 6.66271 12.4667C6.67421 12.342 6.66099 12.2163 6.62382 12.0967C6.58664 11.9771 6.52624 11.866 6.44607 11.7698L2.98977 7.61842L14.2822 7.61842C14.5348 7.61842 14.7769 7.5181 14.9555 7.33954C15.1341 7.16098 15.2344 6.9188 15.2344 6.66627C15.2344 6.41375 15.1341 6.17157 14.9555 5.993C14.7769 5.81444 14.5348 5.71413 14.2822 5.71413Z" fill="#FAF3FE"/>
</svg>
