<svg width="20" height="20" viewBox="0 0 20 20" fill="none" xmlns="http://www.w3.org/2000/svg">
<path d="M17.9525 5.9199C17.9647 6.09631 17.9647 6.27256 17.9647 6.45053C17.9647 11.8724 13.837 18.1255 6.28969 18.1255V18.1224C4.06001 18.1255 1.87655 17.4869 0 16.2827C0.324219 16.3218 0.65 16.3413 0.976562 16.3421C2.82455 16.3436 4.61938 15.7238 6.07266 14.5822C5.2164 14.5661 4.3866 14.2827 3.69929 13.7718C3.01197 13.2609 2.50149 12.548 2.23922 11.7327C2.85438 11.8515 3.48812 11.8269 4.09188 11.6619C2.1775 11.2752 0.800313 9.59334 0.800313 7.64006V7.58803C1.37099 7.90595 2.00969 8.08209 2.66266 8.10162C0.859375 6.89662 0.303906 4.49803 1.39266 2.62287C2.4228 3.89047 3.70806 4.9272 5.16497 5.66573C6.62188 6.40425 8.21785 6.82805 9.84922 6.90959C9.68661 6.2094 9.71068 5.47878 9.91901 4.79081C10.1274 4.10284 10.5127 3.48162 11.0364 2.98928C12.6891 1.43568 15.2883 1.51537 16.8417 3.16724C17.7607 2.9858 18.6419 2.64888 19.4475 2.17099C19.1412 3.1211 18.5002 3.92761 17.6437 4.44053C18.4571 4.34462 19.2515 4.12682 20 3.79443C19.4493 4.61906 18.756 5.33883 17.9525 5.9199Z" fill="#1D9BF0"/>
</svg>
