<svg width="40" height="40" viewBox="0 0 40 40" fill="none" xmlns="http://www.w3.org/2000/svg">
<g id="iconos bco">
<path id="Vector" d="M14.7023 19.5454C14.7023 20.7175 14.1536 21.8415 13.1768 22.6703C12.2001 23.499 10.8753 23.9646 9.49398 23.9646C8.11264 23.9646 6.78788 23.499 5.81113 22.6703C4.83438 21.8415 4.28564 20.7175 4.28564 19.5454C4.28564 18.3734 4.83438 17.2493 5.81113 16.4206C6.78788 15.5918 8.11264 15.1262 9.49398 15.1262C10.8753 15.1262 12.2001 15.5918 13.1768 16.4206C14.1536 17.2493 14.7023 18.3734 14.7023 19.5454Z" stroke="#A7EF2B" stroke-width="1.5"/>
<path id="Vector_2" d="M25.1188 9.82324L14.7021 16.0101M25.1188 29.2677L14.7021 23.0808" stroke="#A7EF2B" stroke-width="1.5" stroke-linecap="round"/>
<path id="Vector_3" d="M35.5358 31.0355C35.5358 32.2075 34.9871 33.3315 34.0103 34.1603C33.0336 34.9891 31.7088 35.4547 30.3275 35.4547C28.9461 35.4547 27.6214 34.9891 26.6446 34.1603C25.6679 33.3315 25.1191 32.2075 25.1191 31.0355C25.1191 29.8634 25.6679 28.7394 26.6446 27.9106C27.6214 27.0819 28.9461 26.6163 30.3275 26.6163C31.7088 26.6163 33.0336 27.0819 34.0103 27.9106C34.9871 28.7394 35.5358 29.8634 35.5358 31.0355ZM35.5358 8.05567C35.5358 9.22771 34.9871 10.3517 34.0103 11.1805C33.0336 12.0093 31.7088 12.4749 30.3275 12.4749C28.9461 12.4749 27.6214 12.0093 26.6446 11.1805C25.6679 10.3517 25.1191 9.22771 25.1191 8.05567C25.1191 6.88362 25.6679 5.75959 26.6446 4.93083C27.6214 4.10207 28.9461 3.63647 30.3275 3.63647C31.7088 3.63647 33.0336 4.10207 34.0103 4.93083C34.9871 5.75959 35.5358 6.88362 35.5358 8.05567Z" stroke="#A7EF2B" stroke-width="1.5"/>
</g>
</svg>
