<svg width="20" height="21" viewBox="0 0 20 21" fill="none" xmlns="http://www.w3.org/2000/svg">
<path d="M19.1304 20.1876C19.1304 20.1047 19.0846 20.0252 19.0031 19.9666C18.9215 19.908 18.8109 19.8751 18.6956 19.8751H3.04346C2.92814 19.8751 2.81755 19.908 2.73602 19.9666C2.65448 20.0252 2.60867 20.1047 2.60867 20.1876C2.60867 20.2704 2.65448 20.3499 2.73602 20.4085C2.81755 20.4671 2.92814 20.5001 3.04346 20.5001H18.6956C18.8109 20.5001 18.9215 20.4671 19.0031 20.4085C19.0846 20.3499 19.1304 20.2704 19.1304 20.1876ZM1.1078 6.34631C0.744325 6.52006 0.19302 7.04881 0.715629 7.80006C1.14954 8.42318 2.05476 9.18568 3.01737 9.38693C3.24874 9.43904 3.49291 9.45507 3.73359 9.43394C3.97426 9.41282 4.2059 9.35503 4.41302 9.26443C5.36867 8.85318 6.49737 8.29693 6.97563 8.05818C7.57911 8.27756 8.34085 8.32318 9.11476 8.18006L9.1252 8.17756C9.07998 9.20943 8.59389 9.85381 6.21737 11.4401C4.09911 12.8532 2.84259 14.7094 2.85476 16.4063C2.86346 17.5194 3.4278 18.4751 4.48954 19.1682C4.56955 19.2208 4.6741 19.2501 4.78259 19.2501H16.9565C17.0718 19.2501 17.1824 19.2171 17.2639 19.1585C17.3455 19.0999 17.3913 19.0204 17.3913 18.9376C17.3913 18.8547 17.3455 18.7752 17.2639 18.7166C17.1824 18.658 17.0718 18.6251 16.9565 18.6251H4.95563C4.1565 18.0594 3.73215 17.2938 3.72519 16.4032C3.71389 14.9019 4.8965 13.1751 6.80954 11.8982C9.34433 10.2069 9.99998 9.40568 9.99998 8.00006C9.99998 7.97443 9.9878 7.95193 9.97998 7.92818C10.4556 7.74381 10.8669 7.50006 11.1478 7.20506C11.5 6.83631 12.2582 5.88943 11.6956 5.05131C11.6707 5.01437 11.636 4.98132 11.5933 4.95405C11.5506 4.92677 11.5009 4.9058 11.447 4.89234C11.393 4.87888 11.3359 4.87318 11.2789 4.87558C11.2219 4.87797 11.1661 4.88841 11.1148 4.90631C11.0634 4.9242 11.0174 4.94919 10.9794 4.97986C10.9415 5.01052 10.9123 5.04626 10.8936 5.08503C10.8749 5.1238 10.8669 5.16484 10.8703 5.20581C10.8736 5.24678 10.8881 5.28687 10.913 5.32381C11.1661 5.70068 10.9861 6.27193 10.4313 6.85193C10.1113 7.18693 9.53911 7.45756 8.89998 7.57506C8.25041 7.69443 7.63302 7.64193 7.20259 7.43006C7.12936 7.394 7.04254 7.37491 6.95378 7.37535C6.86502 7.3758 6.77858 7.39576 6.70606 7.43256C6.69041 7.44006 5.16085 8.21443 3.9678 8.72881C3.86322 8.77506 3.74581 8.80429 3.62382 8.81444C3.50184 8.82459 3.37824 8.81542 3.26172 8.78756C2.58867 8.64631 1.84867 8.03006 1.49476 7.52131C1.20867 7.11006 1.50172 6.91381 1.63476 6.84381C4.63215 4.98318 6.1365 3.05006 6.19824 2.96818C6.22685 2.93035 6.24438 2.88871 6.24977 2.84582C6.25515 2.80293 6.24827 2.75971 6.22954 2.71881C6.04146 2.30162 5.88471 1.87747 5.75998 1.44818C6.66954 1.84193 8.23389 2.39193 9.86259 2.39193C12.1269 2.39193 17.3913 2.99943 17.3913 8.62693C17.3913 8.65756 17.3835 11.7169 15.6782 15.0813C15.658 15.12 15.6487 15.1612 15.6508 15.2025C15.6529 15.2438 15.6664 15.2844 15.6905 15.3219C15.7145 15.3594 15.7487 15.3932 15.791 15.4211C15.8334 15.4491 15.883 15.4707 15.937 15.4848C15.9911 15.4989 16.0485 15.5052 16.1059 15.5032C16.1634 15.5013 16.2197 15.4911 16.2716 15.4734C16.3236 15.4557 16.3701 15.4308 16.4086 15.4001C16.447 15.3693 16.4766 15.3334 16.4956 15.2944C18.253 11.8269 18.2617 8.75318 18.2608 8.62506C18.2608 2.26068 11.8322 1.76631 9.86259 1.76631C7.68085 1.76631 5.50433 0.576932 5.48346 0.564432C5.41857 0.529286 5.34144 0.507709 5.26057 0.502084C5.17971 0.496459 5.09825 0.507005 5.02519 0.532557C4.95245 0.558321 4.89118 0.598196 4.8483 0.647676C4.80543 0.697155 4.78267 0.754267 4.78259 0.812557C4.78259 1.42568 5.18693 2.41756 5.34433 2.77943C4.98085 3.21568 3.5478 4.83006 1.1078 6.34631Z" fill="#FAF3FE"/>
<path d="M15.2043 1.4625C13.8121 0.788125 12.2556 0.5 9.99997 0.5C9.88466 0.5 9.77407 0.532924 9.69253 0.591529C9.61099 0.650134 9.56519 0.72962 9.56519 0.8125C9.56519 0.89538 9.61099 0.974866 9.69253 1.03347C9.77407 1.09208 9.88466 1.125 9.99997 1.125C12.0695 1.125 13.4808 1.38063 14.7191 1.98062C16.7313 2.95688 19.1304 4.90188 19.1304 8.625C19.1304 9.53187 19.1304 10.7738 18.2739 13.2369C18.2489 13.3165 18.2684 13.4 18.328 13.4695C18.3876 13.539 18.4826 13.5889 18.5928 13.6087C18.703 13.6284 18.8196 13.6164 18.9176 13.5752C19.0156 13.534 19.0873 13.4668 19.1174 13.3881C20 10.8512 20 9.56437 20 8.625C20 4.6275 17.3921 2.52312 15.2043 1.4625Z" fill="#FAF3FE"/>
</svg>
