<svg width="20" height="21" viewBox="0 0 20 21" fill="none" xmlns="http://www.w3.org/2000/svg">
<path d="M12.1541 10.5625C12.369 10.2097 12.5911 9.84488 12.8104 9.46875C13.5445 8.21024 13.6793 6.94215 13.2109 5.69965C12.266 3.1927 9.10716 1.66523 8.37587 1.42152L7.86165 1.25L7.05907 2.85547L7.44638 3.17188C7.45071 3.17535 7.88091 3.55125 7.90958 4.12109C7.93407 4.60754 7.66739 5.1332 7.11716 5.68359C6.73505 6.06566 6.31567 6.43512 5.87165 6.82621C4.00345 8.47145 1.88599 10.3367 1.88599 13.8654C1.88599 13.9139 1.88644 13.962 1.88735 14.0099C1.90089 14.7886 2.06813 15.5569 2.37947 16.2708C2.69081 16.9847 3.14011 17.63 3.70157 18.1697C4.829 19.2663 6.34068 19.8783 7.91345 19.875H11.5111L11.067 18.9738C9.26259 15.3116 10.5386 13.2158 12.1541 10.5625ZM7.91345 18.625C5.32751 18.625 3.18493 16.5443 3.13712 13.9868C3.13639 13.9465 3.13601 13.906 3.13599 13.8654C3.13599 10.9014 4.94677 9.30629 6.69794 7.76383C7.13696 7.37711 7.59099 6.97719 8.00102 6.56707C8.81173 5.75641 9.20099 4.91219 9.15802 4.05801C9.13926 3.69602 9.04317 3.34225 8.87622 3.02051C9.96372 3.61469 11.5138 4.74133 12.0413 6.1407C12.3751 7.02606 12.2735 7.90867 11.7308 8.8391C11.5173 9.20508 11.2983 9.56473 11.0865 9.91258C9.53645 12.4582 8.06606 14.8728 9.5454 18.625H7.91345Z" fill="#FAF3FE"/>
<path d="M18.2908 13.8253C18.2804 13.784 18.2696 13.7426 18.2583 13.7009C17.8072 12.0473 15.3107 9.92116 15.0276 9.68417L14.4589 9.20831L14.086 9.84925C13.2363 11.3102 12.5071 12.6427 12.1892 14.1544C11.8267 15.8784 12.0707 17.6305 12.9353 19.511L13.1025 19.875H13.5274C14.2759 19.8771 15.0148 19.7075 15.6873 19.379C16.3598 19.0505 16.9479 18.5721 17.4063 17.9805C17.862 17.4018 18.1787 16.7262 18.332 16.0058C18.4854 15.2854 18.4713 14.5394 18.2908 13.8253ZM16.4205 17.2114C16.1176 17.6025 15.7382 17.9279 15.3054 18.1676C14.8726 18.4074 14.3956 18.5565 13.9033 18.6059C12.6713 15.6411 13.3982 13.6202 14.7873 11.1405C15.7108 11.9997 16.8363 13.2378 17.0523 14.0296C17.0614 14.0631 17.0701 14.0963 17.0784 14.1294C17.212 14.6592 17.2221 15.2126 17.108 15.7469C16.994 16.2813 16.7588 16.7823 16.4205 17.2114Z" fill="#FAF3FE"/>
</svg>
