<svg width="20" height="20" viewBox="0 0 20 20" fill="none" xmlns="http://www.w3.org/2000/svg">
<path d="M14.4643 0C12.6205 0 11.0063 0.925218 10 2.48913C8.99375 0.925218 7.37946 0 5.53571 0C4.06806 0.00193039 2.66099 0.683141 1.6232 1.89418C0.585411 3.10522 0.00165423 4.74719 0 6.45986C0 13.7532 9.26696 19.6567 9.66161 19.9005C9.76562 19.9658 9.88189 20 10 20C10.1181 20 10.2344 19.9658 10.3384 19.9005C10.733 19.6567 20 13.7532 20 6.45986C19.9983 4.74719 19.4146 3.10522 18.3768 1.89418C17.339 0.683141 15.9319 0.00193039 14.4643 0ZM10 18.2126C8.36964 17.104 1.42857 12.0539 1.42857 6.45986C1.42999 5.18924 1.86316 3.97113 2.63309 3.07266C3.40302 2.1742 4.44687 1.66871 5.53571 1.66706C7.27232 1.66706 8.73036 2.74648 9.33929 4.48022C9.3931 4.6331 9.48465 4.76386 9.60229 4.85588C9.71994 4.94791 9.85837 4.99704 10 4.99704C10.1416 4.99704 10.2801 4.94791 10.3977 4.85588C10.5154 4.76386 10.6069 4.6331 10.6607 4.48022C11.2696 2.74336 12.7277 1.66706 14.4643 1.66706C15.5531 1.66871 16.597 2.1742 17.3669 3.07266C18.1368 3.97113 18.57 5.18924 18.5714 6.45986C18.5714 12.0455 11.6286 17.103 10 18.2126Z" fill="#FAF3FE"/>
</svg>
