<svg width="20" height="21" viewBox="0 0 20 21" fill="none" xmlns="http://www.w3.org/2000/svg">
<path d="M6.13626 5.85061C5.48797 6.20047 4.89525 6.64469 4.37751 7.16874C4.19249 7.35619 4.01685 7.55268 3.85126 7.75749C3.64346 7.6257 3.46972 7.44669 3.34419 7.23504C3.21867 7.02339 3.14491 6.78509 3.12891 6.53954C3.11292 6.29399 3.15515 6.04813 3.25216 5.82199C3.34917 5.59585 3.49822 5.39581 3.68718 5.23818C3.87613 5.08055 4.09964 4.96977 4.33951 4.91487C4.57938 4.85997 4.82883 4.8625 5.06753 4.92226C5.30624 4.98201 5.52746 5.0973 5.71317 5.25873C5.89889 5.42016 6.04385 5.62318 6.13626 5.85124V5.85061ZM16.1488 7.75749C15.9869 7.55749 15.8119 7.36062 15.6225 7.16874C15.1048 6.64469 14.5121 6.20047 13.8638 5.85061C13.9563 5.62266 14.1013 5.41977 14.2871 5.25846C14.4728 5.09715 14.694 4.98198 14.9327 4.92233C15.1714 4.86268 15.4208 4.86023 15.6606 4.91518C15.9004 4.97013 16.1238 5.08093 16.3127 5.23856C16.5016 5.39619 16.6506 5.59619 16.7475 5.82228C16.8445 6.04838 16.8867 6.29418 16.8708 6.53968C16.8548 6.78518 16.7811 7.02343 16.6556 7.23505C16.5301 7.44667 16.3565 7.62567 16.1488 7.75749ZM7.50001 9.23061C7.33425 9.23061 7.17528 9.29646 7.05807 9.41367C6.94086 9.53088 6.87501 9.68985 6.87501 9.85561V10.4806C6.87501 10.6464 6.94086 10.8053 7.05807 10.9226C7.17528 11.0398 7.33425 11.1056 7.50001 11.1056C7.66577 11.1056 7.82474 11.0398 7.94195 10.9226C8.05916 10.8053 8.12501 10.6464 8.12501 10.4806V9.85561C8.12501 9.68985 8.05916 9.53088 7.94195 9.41367C7.82474 9.29646 7.66577 9.23061 7.50001 9.23061ZM12.5 9.23061C12.3342 9.23061 12.1753 9.29646 12.0581 9.41367C11.9409 9.53088 11.875 9.68985 11.875 9.85561V10.4806C11.875 10.6464 11.9409 10.8053 12.0581 10.9226C12.1753 11.0398 12.3342 11.1056 12.5 11.1056C12.6658 11.1056 12.8247 11.0398 12.942 10.9226C13.0592 10.8053 13.125 10.6464 13.125 10.4806V9.85561C13.125 9.68985 13.0592 9.53088 12.942 9.41367C12.8247 9.29646 12.6658 9.23061 12.5 9.23061ZM9.70376 13.5125L9.07001 12.9912C8.99971 12.9326 8.94913 12.8538 8.92509 12.7654C8.90105 12.6771 8.90473 12.5835 8.93561 12.4973C8.9665 12.4112 9.0231 12.3365 9.09778 12.2836C9.17245 12.2306 9.26159 12.2019 9.35313 12.2012H10.6494C10.7413 12.2012 10.8309 12.2295 10.9061 12.2824C10.9812 12.3352 11.0382 12.41 11.0692 12.4965C11.1002 12.583 11.1037 12.677 11.0792 12.7655C11.0548 12.8541 11.0035 12.9329 10.9325 12.9912L10.2994 13.5119C10.2155 13.5809 10.1102 13.6186 10.0016 13.6186C9.89293 13.6186 9.78766 13.5815 9.70376 13.5125ZM10.1094 14.27C10.0677 14.2541 10.023 14.2474 9.97846 14.2503C9.93392 14.2533 9.89052 14.2657 9.85122 14.2869C9.81191 14.308 9.77762 14.3374 9.75067 14.373C9.72372 14.4086 9.70473 14.4495 9.69501 14.4931C9.64251 14.7037 9.57251 14.9587 9.42813 15.1637C9.29563 15.3525 9.09938 15.5 8.75001 15.5C8.34126 15.5 8.12501 15.1662 8.12501 14.875C8.12501 14.7921 8.09208 14.7126 8.03348 14.654C7.97487 14.5954 7.89539 14.5625 7.81251 14.5625C7.72963 14.5625 7.65014 14.5954 7.59154 14.654C7.53293 14.7126 7.50001 14.7921 7.50001 14.875C7.50001 15.4175 7.90876 16.125 8.75001 16.125C9.32813 16.125 9.70501 15.8562 9.93938 15.5237C9.96063 15.4931 9.98063 15.4625 10 15.4312C10.0188 15.4625 10.0394 15.4937 10.0606 15.5237C10.295 15.8562 10.6719 16.125 11.25 16.125C12.0913 16.125 12.5 15.4175 12.5 14.875C12.5 14.7921 12.4671 14.7126 12.4085 14.654C12.3499 14.5954 12.2704 14.5625 12.1875 14.5625C12.1046 14.5625 12.0251 14.5954 11.9665 14.654C11.9079 14.7126 11.875 14.7921 11.875 14.875C11.875 15.1662 11.6588 15.5 11.25 15.5C10.9 15.5 10.7044 15.3525 10.5719 15.1637C10.4275 14.9587 10.3575 14.7037 10.305 14.4931C10.2914 14.436 10.2624 14.3837 10.2213 14.3419C10.1898 14.3102 10.1518 14.2857 10.11 14.27H10.1094Z" fill="#FAF3FE"/>
<path d="M7.15122 11.975C7.99812 11.421 8.988 11.1257 9.99997 11.125C11.012 11.1257 12.0018 11.421 12.8487 11.975C13.1277 12.1578 13.3563 12.4077 13.5138 12.7018C13.6712 12.9958 13.7524 13.3246 13.75 13.6581V14.1206C13.7657 15.1319 13.3798 16.1082 12.6768 16.8354C11.9739 17.5626 11.0112 17.9814 9.99997 18C8.98872 17.9814 8.02609 17.5626 7.32313 16.8354C6.62017 16.1082 6.23425 15.1319 6.24997 14.1206V13.6581C6.24753 13.3246 6.32874 12.9958 6.48618 12.7018C6.64363 12.4077 6.87228 12.1578 7.15122 11.975ZM12.5081 12.5C11.7625 12.0119 10.8911 11.7513 9.99997 11.75C9.10918 11.7509 8.2379 12.011 7.49247 12.4987C7.30135 12.6255 7.14482 12.7979 7.03701 13.0003C6.9292 13.2027 6.87351 13.4288 6.87497 13.6581V14.1206C6.85823 14.9665 7.17796 15.7844 7.76393 16.3946C8.34989 17.0048 9.15415 17.3574 9.99997 17.375C10.8458 17.3574 11.6501 17.0048 12.236 16.3946C12.822 15.7844 13.1417 14.9665 13.125 14.1206V13.6581C13.1262 13.4291 13.0705 13.2033 12.9628 13.0011C12.8552 12.799 12.6989 12.6268 12.5081 12.5Z" fill="#FAF3FE"/>
<path d="M3.9806 18.4706C4.06623 18.5206 6.12498 19.7006 9.99998 19.7006C13.8325 19.7006 15.8887 18.5463 15.9769 18.4969L15.9787 18.4956C17.1668 17.9129 18.1318 16.9579 18.727 15.776C19.3221 14.5942 19.5148 13.2502 19.2756 11.9488C19.0928 10.713 18.7072 9.51581 18.1344 8.40564C18.622 7.70801 18.8335 6.85427 18.7279 6.00967C18.6223 5.16507 18.2071 4.38968 17.5627 3.83361C16.9183 3.27754 16.0904 2.98034 15.2395 2.99953C14.3885 3.01873 13.5749 3.35295 12.9562 3.93751C11.0383 3.29294 8.96227 3.29294 7.04435 3.93751C6.42511 3.35852 5.61376 3.02877 4.76617 3.01162C3.91859 2.99447 3.09456 3.29113 2.45241 3.84461C1.81025 4.39808 1.39527 5.16933 1.28719 6.01017C1.17911 6.85101 1.38555 7.70213 1.86685 8.40001C1.29659 9.50232 0.912253 10.6912 0.729354 11.9188C0.660381 12.2898 0.625444 12.6664 0.624978 13.0438C0.618453 14.1721 0.929718 15.2795 1.52315 16.2393C2.11659 17.199 2.96823 17.9723 3.9806 18.4706ZM3.49185 4.60564C3.84743 4.37357 4.26287 4.25 4.68748 4.25001C5.01275 4.24916 5.3341 4.32113 5.62794 4.46064C5.92178 4.60015 6.18066 4.80367 6.3856 5.05626C6.46898 5.15831 6.58248 5.23139 6.70988 5.26507C6.83728 5.29874 6.97207 5.29128 7.09498 5.24376C8.96466 4.51878 11.0378 4.51878 12.9075 5.24376C13.0302 5.29173 13.1651 5.29941 13.2925 5.26571C13.4199 5.232 13.5333 5.15865 13.6162 5.05626C13.801 4.82898 14.0295 4.6411 14.2882 4.50379C14.5469 4.36647 14.8306 4.28251 15.1223 4.25688C15.4141 4.23125 15.708 4.26448 15.9867 4.35459C16.2654 4.4447 16.5232 4.58986 16.7447 4.78147C16.9662 4.97307 17.147 5.20721 17.2764 5.47C17.4057 5.73279 17.481 6.01888 17.4977 6.3113C17.5144 6.60372 17.4722 6.89651 17.3736 7.17232C17.275 7.44812 17.122 7.70132 16.9237 7.91689C16.8337 8.01494 16.7773 8.13917 16.7628 8.27149C16.7483 8.4038 16.7765 8.53729 16.8431 8.65251C17.4564 9.73468 17.8629 10.9216 18.0419 12.1525C18.0962 12.4463 18.1244 12.745 18.125 13.0438C18.1264 13.9524 17.8702 14.8428 17.3861 15.6117C16.902 16.3806 16.2099 16.9966 15.39 17.3881C15.3719 17.4013 13.5062 18.4506 10.0006 18.4506C6.5281 18.4506 4.66498 17.4213 4.57435 17.3713L4.57248 17.37C3.75941 16.9747 3.07471 16.3575 2.59741 15.5897C2.1201 14.8218 1.86966 13.9347 1.87498 13.0306C1.87685 12.7281 1.90623 12.4263 1.96185 12.1288C2.14116 10.9058 2.54616 9.72685 3.15623 8.65189C3.22288 8.53667 3.251 8.40318 3.23649 8.27086C3.22199 8.13854 3.16563 8.01431 3.0756 7.91626C2.86097 7.68231 2.69983 7.40443 2.60339 7.10194C2.50694 6.79944 2.4775 6.47958 2.51711 6.16456C2.55672 5.84955 2.66442 5.54693 2.83275 5.27772C3.00107 5.00852 3.22598 4.77918 3.49185 4.60564Z" fill="#FAF3FE"/>
</svg>
