<svg width="21" height="21" viewBox="0 0 21 21" fill="none" xmlns="http://www.w3.org/2000/svg">
<path d="M3.11143 20.0818C3.06191 19.7873 3.04787 19.489 3.06952 19.1918L3.06857 19.2043L3.08476 18.501L4.10381 18.4727L4.5819 17.8385C4.78857 17.5552 4.99905 17.3102 5.22762 17.0793L5.22 17.0868L5.37238 16.9743H10.1857C14.8429 16.9743 15.0095 16.9793 15.1324 17.0635C15.3562 17.2852 15.5667 17.5293 15.7552 17.7868L15.7714 17.8102L16.281 18.4718L17.3 18.5002L17.3162 19.0868C17.3429 19.9418 17.3 20.1535 17.0876 20.3402C17.038 20.3962 16.9725 20.4398 16.8977 20.4669C16.8229 20.4939 16.7413 20.5034 16.661 20.4943H16.6629C16.5825 20.503 16.501 20.4934 16.4262 20.4665C16.3513 20.4397 16.2855 20.3965 16.2352 20.341L16.2343 20.3402C16.0733 20.2068 14.5714 18.3118 14.501 18.1568C13.5782 18.1016 12.6535 18.0744 11.7286 18.0752C11.1905 18.0752 10.6543 18.0843 10.121 18.1018L10.1981 18.1002L5.92667 18.1052L5.09619 19.1852C4.78539 19.6099 4.44904 20.0199 4.08857 20.4135L4.11333 20.3852C4.01202 20.4597 3.88381 20.5005 3.75143 20.5002H3.74286C3.601 20.4987 3.46337 20.4577 3.34986 20.3833C3.23635 20.3088 3.15285 20.2047 3.11143 20.086V20.0818ZM10.1781 15.8377L5.79048 15.8235L4.93619 15.0718L4.07714 14.3202V12.2993C4.07714 11.191 4.10381 10.0785 4.13048 9.83266C4.23531 8.94183 4.59391 8.08825 5.17344 7.35011C5.75297 6.61197 6.53491 6.01287 7.44762 5.60766L7.48286 5.59349C7.92095 5.39183 8.42952 5.23266 8.96476 5.13849L9.00095 5.13349C9.91745 5.00601 10.8532 5.03117 11.759 5.20766L11.7105 5.19933C12.7461 5.44246 13.6927 5.91485 14.459 6.57099L14.4581 6.57016C15.3341 7.31802 15.9322 8.27956 16.1743 9.32933L16.181 9.36349C16.2931 10.2532 16.3304 11.149 16.2924 12.0435L16.2933 12.0118L16.32 14.3077L15.44 15.0777L14.56 15.8427L10.1781 15.8377ZM9.33048 13.7043C9.1836 13.7842 9.0779 13.9109 9.03562 14.0576C8.99334 14.2043 9.01779 14.3597 9.10381 14.491L9.1019 14.4885C9.26762 14.7327 9.41905 14.7702 10.2181 14.7702H10.9476L11.141 14.6152C11.2209 14.5566 11.2833 14.4819 11.3229 14.3975C11.3626 14.3131 11.3782 14.2216 11.3684 14.1307C11.3587 14.0399 11.3239 13.9525 11.267 13.8761C11.2101 13.7996 11.1329 13.7364 11.0419 13.6918L11.039 13.6902C10.8943 13.6102 10.7657 13.596 10.1914 13.596C9.57238 13.5927 9.49714 13.6018 9.33048 13.7002V13.7043ZM5.71429 8.87516C5.4639 9.46737 5.36034 10.0994 5.41048 10.7293L5.40952 10.716L5.40381 11.5827L6.26762 12.3435L7.13524 13.101L7.54286 13.0918C7.94476 13.0868 7.94476 13.0868 8.19714 12.871L8.44381 12.6552H11.9314L12.1838 12.871L12.4305 13.0868H13.2686L14.9695 11.5985V10.7402C15.028 10.059 14.9041 9.37537 14.6076 8.74349L14.62 8.77266C14.3183 8.12789 13.8379 7.55903 13.222 7.11746C12.6061 6.67589 11.8742 6.37553 11.0924 6.24349L11.0629 6.23933C10.7798 6.19128 10.4921 6.16727 10.2038 6.16766H10.2C9.23364 6.17237 8.29101 6.43005 7.49344 6.90753C6.69588 7.385 6.07989 8.06041 5.72476 8.84683L5.71429 8.87516ZM8.9819 3.94516L9.10571 3.21683C9.16952 2.81683 9.22952 2.48349 9.22952 2.47516C9.22952 2.46683 7.15333 2.46599 4.61524 2.46599H0V1.33933H9.22857V1.22183C9.25544 1.07635 9.32273 0.938868 9.42453 0.821465C9.52632 0.704062 9.65951 0.610326 9.81238 0.548492L9.81905 0.545992C10.0731 0.478345 10.3453 0.484189 10.5952 0.562659L10.5867 0.560159C10.86 0.675992 11.0629 0.888492 11.1371 1.14516L11.139 1.15099L11.1762 1.33933H20.3895V2.46599H11.1552L11.1819 2.61599C11.2524 2.97766 11.3752 3.79016 11.3752 3.86433C11.3752 3.93849 11.2733 3.94433 10.179 3.94433L8.9819 3.94516Z" fill="#FAF3FE"/>
</svg>
