<svg width="46" height="45" viewBox="0 0 46 45" fill="none" xmlns="http://www.w3.org/2000/svg">
<g id="ant-design:like-outlined">
<path id="Vector" d="M39.4854 23.4536C40.2236 22.4781 40.6323 21.2827 40.6323 20.0391C40.6323 18.066 39.5293 16.1983 37.7539 15.1568C37.2968 14.8887 36.7765 14.7476 36.2466 14.7481H25.7085L25.9722 9.3472C26.0337 8.04202 25.5723 6.80277 24.6758 5.85794C24.2358 5.39225 23.705 5.02172 23.1162 4.76926C22.5274 4.51681 21.8931 4.38779 21.2524 4.39017C18.9673 4.39017 16.9458 5.92826 16.3394 8.12992L12.5645 21.7969H6.88232C6.10449 21.7969 5.47607 22.4253 5.47607 23.2032V39.1993C5.47607 39.9771 6.10449 40.6055 6.88232 40.6055H33.3066C33.7109 40.6055 34.1064 40.5264 34.4712 40.3682C36.563 39.4761 37.9121 37.4327 37.9121 35.1651C37.9121 34.6114 37.833 34.0664 37.6748 33.5391C38.4131 32.5635 38.8218 31.3682 38.8218 30.1245C38.8218 29.5708 38.7427 29.0259 38.5845 28.4986C39.3228 27.523 39.7314 26.3277 39.7314 25.084C39.7227 24.5303 39.6436 23.981 39.4854 23.4536ZM8.64014 37.4414V24.961H12.1997V37.4414H8.64014ZM36.6069 21.9287L35.6445 22.7637L36.2554 23.8799C36.4566 24.2476 36.561 24.6605 36.5586 25.0796C36.5586 25.8047 36.2422 26.4947 35.6973 26.9693L34.7349 27.8042L35.3457 28.9204C35.5469 29.2881 35.6513 29.701 35.6489 30.1202C35.6489 30.8452 35.3325 31.5352 34.7876 32.0098L33.8252 32.8448L34.436 33.961C34.6373 34.3287 34.7416 34.7415 34.7393 35.1607C34.7393 36.1451 34.1592 37.0327 33.2627 37.437H15.0122V24.8203L19.3848 8.97806C19.4975 8.57201 19.7395 8.21377 20.0742 7.95763C20.4088 7.7015 20.8178 7.56142 21.2393 7.55863C21.5732 7.55863 21.9028 7.65531 22.1665 7.85306C22.6016 8.17826 22.8345 8.67044 22.8081 9.19339L22.3862 17.9121H36.2026C36.9849 18.3911 37.4683 19.1997 37.4683 20.0391C37.4683 20.7642 37.1519 21.4497 36.6069 21.9287Z" fill="white"/>
</g>
</svg>
