<svg width="53" height="50" viewBox="0 0 53 50" fill="none" xmlns="http://www.w3.org/2000/svg">
<g id="ic:round-star-half">
<path id="Vector" d="M42.9814 18.8333L32.5484 17.9583L28.4743 8.6875C27.7414 7 25.2409 7 24.508 8.6875L20.434 17.9792L10.0225 18.8333C8.12556 18.9792 7.34955 21.2708 8.7938 22.4792L16.7048 29.1042L14.3337 38.9375C13.9025 40.7292 15.9072 42.1458 17.5455 41.1875L26.4912 35.9792L35.4369 41.2083C37.0751 42.1667 39.0798 40.75 38.6487 38.9583L36.2775 29.1042L44.1885 22.4792C45.6328 21.2708 44.8783 18.9792 42.9814 18.8333ZM26.4912 32.0833V12.7083L30.1772 21.125L39.6187 21.9167L32.4621 27.9167L34.6177 36.8333L26.4912 32.0833Z" fill="#F69B12"/>
</g>
</svg>
