<svg width="15" height="16" viewBox="0 0 15 16" fill="none" xmlns="http://www.w3.org/2000/svg">
<path d="M6.66554 1.00049L6.66554 12.2929L2.51419 8.83665C2.41791 8.75663 2.30681 8.69635 2.18724 8.65926C2.06766 8.62217 1.94195 8.609 1.81729 8.62049C1.56551 8.64371 1.33328 8.76598 1.17166 8.96043C1.01004 9.15487 0.93229 9.40555 0.955503 9.65733C0.978717 9.9091 1.101 10.1413 1.29544 10.303L7.00832 15.0637C7.05376 15.0957 7.10149 15.1244 7.15114 15.1494C7.19875 15.1494 7.22731 15.197 7.27492 15.216C7.38409 15.2592 7.5003 15.2818 7.61769 15.2827C7.73508 15.2818 7.85129 15.2592 7.96046 15.216C8.00807 15.216 8.03663 15.1684 8.08424 15.1494C8.13389 15.1244 8.18162 15.0957 8.22706 15.0637L13.9399 10.303C14.0474 10.2134 14.1339 10.1013 14.1931 9.97461C14.2523 9.84789 14.2829 9.70968 14.2827 9.5698C14.2831 9.34733 14.2057 9.13173 14.0637 8.96043C13.9838 8.86401 13.8856 8.78432 13.7748 8.7259C13.6641 8.66749 13.5428 8.6315 13.4181 8.62C13.2934 8.6085 13.1677 8.62172 13.0481 8.6589C12.9285 8.69607 12.8174 8.75648 12.7212 8.83665L8.56984 12.2929V1.00049C8.56984 0.747961 8.46952 0.505779 8.29096 0.327217C8.1124 0.148655 7.87021 0.0483398 7.61769 0.0483398C7.36516 0.0483398 7.12298 0.148655 6.94442 0.327217C6.76586 0.505779 6.66554 0.747961 6.66554 1.00049Z" fill="#FAF3FE"/>
</svg>
