<svg width="24" height="25" viewBox="0 0 24 25" fill="none" xmlns="http://www.w3.org/2000/svg">
<g id="mdi:instagram">
<path id="Vector" d="M7.8 2.00806H16.2C19.4 2.00806 22 4.6185 22 7.83135V16.2651C22 17.8095 21.3889 19.2907 20.3012 20.3828C19.2135 21.4749 17.7383 22.0884 16.2 22.0884H7.8C4.6 22.0884 2 19.4779 2 16.2651V7.83135C2 6.28692 2.61107 4.80574 3.69878 3.71366C4.78649 2.62158 6.26174 2.00806 7.8 2.00806ZM7.6 4.01609C6.64522 4.01609 5.72955 4.3969 5.05442 5.07474C4.37928 5.75258 4 6.67193 4 7.63055V16.4659C4 18.4639 5.61 20.0803 7.6 20.0803H16.4C17.3548 20.0803 18.2705 19.6995 18.9456 19.0217C19.6207 18.3439 20 17.4245 20 16.4659V7.63055C20 5.63255 18.39 4.01609 16.4 4.01609H7.6ZM17.25 5.52211C17.5815 5.52211 17.8995 5.65434 18.1339 5.8897C18.3683 6.12506 18.5 6.44428 18.5 6.77713C18.5 7.10999 18.3683 7.4292 18.1339 7.66457C17.8995 7.89993 17.5815 8.03215 17.25 8.03215C16.9185 8.03215 16.6005 7.89993 16.3661 7.66457C16.1317 7.4292 16 7.10999 16 6.77713C16 6.44428 16.1317 6.12506 16.3661 5.8897C16.6005 5.65434 16.9185 5.52211 17.25 5.52211ZM12 7.02814C13.3261 7.02814 14.5979 7.55704 15.5355 8.49849C16.4732 9.43993 17 10.7168 17 12.0482C17 13.3796 16.4732 14.6565 15.5355 15.598C14.5979 16.5394 13.3261 17.0683 12 17.0683C10.6739 17.0683 9.40215 16.5394 8.46447 15.598C7.52678 14.6565 7 13.3796 7 12.0482C7 10.7168 7.52678 9.43993 8.46447 8.49849C9.40215 7.55704 10.6739 7.02814 12 7.02814ZM12 9.03617C11.2044 9.03617 10.4413 9.35351 9.87868 9.91838C9.31607 10.4832 9 11.2494 9 12.0482C9 12.8471 9.31607 13.6132 9.87868 14.1781C10.4413 14.7429 11.2044 15.0603 12 15.0603C12.7956 15.0603 13.5587 14.7429 14.1213 14.1781C14.6839 13.6132 15 12.8471 15 12.0482C15 11.2494 14.6839 10.4832 14.1213 9.91838C13.5587 9.35351 12.7956 9.03617 12 9.03617Z" fill="#EEDFF4"/>
</g>
</svg>
