<svg width="24" height="25" viewBox="0 0 24 25" fill="none" xmlns="http://www.w3.org/2000/svg">
<g id="mdi:twitter">
<path id="Vector" d="M22.46 6.02415C21.69 6.37555 20.86 6.60647 20 6.71692C20.88 6.18479 21.56 5.34141 21.88 4.32736C21.05 4.82937 20.13 5.18077 19.16 5.38158C18.37 4.51812 17.26 4.01611 16 4.01611C13.65 4.01611 11.73 5.94382 11.73 8.32334C11.73 8.66471 11.77 8.99603 11.84 9.30728C8.28004 9.12656 5.11004 7.40969 3.00004 4.80929C2.63004 5.44182 2.42004 6.18479 2.42004 6.96792C2.42004 8.4639 3.17004 9.78921 4.33004 10.5422C3.62004 10.5422 2.96004 10.3414 2.38004 10.0402V10.0703C2.38004 12.1587 3.86004 13.9057 5.82004 14.2972C5.19077 14.4701 4.53013 14.4942 3.89004 14.3675C4.16165 15.2234 4.69358 15.9723 5.41106 16.509C6.12854 17.0457 6.99549 17.3431 7.89004 17.3595C6.37367 18.5647 4.49404 19.2162 2.56004 19.2069C2.22004 19.2069 1.88004 19.1868 1.54004 19.1466C3.44004 20.3715 5.70004 21.0844 8.12004 21.0844C16 21.0844 20.33 14.5181 20.33 8.82535C20.33 8.63459 20.33 8.45386 20.32 8.2631C21.16 7.66069 21.88 6.89764 22.46 6.02415Z" fill="#EEDFF4"/>
</g>
</svg>
