<svg width="40" height="30" viewBox="0 0 40 30" fill="none" xmlns="http://www.w3.org/2000/svg">
<path id="Vector" d="M14.2066 21.9749C16.9455 21.8447 19.5574 20.9615 21.6395 19.4616C23.7215 17.9617 25.1581 15.9283 25.7276 13.6749C26.2972 11.4216 25.9681 9.07357 24.7912 6.99284C23.6142 4.91211 21.6547 3.21427 19.2148 2.16115C16.775 1.10802 13.9903 0.7581 11.2901 1.16534C8.58998 1.57258 6.12438 2.71436 4.27352 4.41462C2.42266 6.11488 1.28935 8.27918 1.04834 10.5738C0.807337 12.8684 1.47202 15.1658 2.9399 17.1118L2.05657 19.337V19.3404C1.71698 20.1924 1.54823 20.6174 1.66698 20.9026C1.77115 21.1492 2.00657 21.3452 2.30032 21.4326C2.63782 21.5341 3.14198 21.3924 4.15032 21.1107L4.1649 21.1072L6.8149 20.3655C9.01691 21.5394 11.6027 22.1024 14.2066 21.9749ZM14.2066 21.9749C14.8308 23.4641 15.8468 24.8159 17.1791 25.9298C18.5115 27.0437 20.1258 27.8911 21.9019 28.4089C23.6781 28.9266 25.5704 29.1014 27.4382 28.9203C29.3059 28.7392 31.101 28.2068 32.6899 27.3628L35.3399 28.1045H35.3461C36.3607 28.3896 36.867 28.5313 37.2066 28.4298C37.3516 28.3861 37.4833 28.3158 37.5921 28.2242C37.7009 28.1325 37.7841 28.0217 37.8357 27.8998C37.9566 27.6164 37.7878 27.1896 37.4482 26.3342L36.5649 24.1091L36.8607 23.698C37.9463 22.1015 38.5135 20.2936 38.5054 18.4553C38.4974 16.617 37.9145 14.8126 36.815 13.2229C35.7155 11.6332 34.1381 10.3138 32.2405 9.39685C30.3429 8.47988 28.1918 7.99749 26.0024 7.99795L25.5336 8.00495L25.2982 8.01544" stroke="black" stroke-width="2" stroke-linecap="round" stroke-linejoin="round"/>
</svg>
