<svg width="35" height="36" viewBox="0 0 35 36" fill="none" xmlns="http://www.w3.org/2000/svg">
<g id="iconos bco">
<path id="Vector" d="M17.5006 11.5698C15.7732 11.5698 14.1166 12.2464 12.8952 13.4506C11.6738 14.6548 10.9876 16.2881 10.9876 17.9911C10.9876 19.6941 11.6738 21.3274 12.8952 22.5316C14.1166 23.7358 15.7732 24.4124 17.5006 24.4124C19.228 24.4124 20.8846 23.7358 22.106 22.5316C23.3274 21.3274 24.0136 19.6941 24.0136 17.9911C24.0136 16.2881 23.3274 14.6548 22.106 13.4506C20.8846 12.2464 19.228 11.5698 17.5006 11.5698ZM13.5928 17.9911C13.5928 16.9693 14.0045 15.9893 14.7374 15.2668C15.4702 14.5443 16.4642 14.1383 17.5006 14.1383C18.537 14.1383 19.531 14.5443 20.2638 15.2668C20.9967 15.9893 21.4084 16.9693 21.4084 17.9911C21.4084 19.0129 20.9967 19.9929 20.2638 20.7154C19.531 21.4379 18.537 21.8439 17.5006 21.8439C16.4642 21.8439 15.4702 21.4379 14.7374 20.7154C14.0045 19.9929 13.5928 19.0129 13.5928 17.9911ZM13.3844 35.4929C14.7326 35.8101 16.1146 35.9706 17.5006 35.9706C18.8853 35.9686 20.265 35.8069 21.6116 35.489C21.9986 35.3991 22.3478 35.1934 22.6113 34.8999C22.8749 34.6065 23.0398 34.2399 23.0836 33.8503L23.3884 31.1149C23.4178 30.8165 23.5188 30.5292 23.6831 30.277C23.8474 30.0247 24.0702 29.8145 24.3331 29.664C24.5961 29.5134 24.8916 29.4267 25.1953 29.411C25.499 29.3953 25.8021 29.4511 26.0796 29.5738L28.6262 30.6731C28.9907 30.8313 29.3962 30.8736 29.7862 30.7942C30.1763 30.7148 30.5316 30.5176 30.8028 30.23C32.6845 28.2312 34.0891 25.8429 34.9138 23.2398C35.0321 22.8633 35.0285 22.4599 34.9037 22.0854C34.7788 21.711 34.5388 21.3842 34.2169 21.1504L31.9647 19.5129C31.7187 19.3362 31.5187 19.1046 31.3808 18.837C31.243 18.5694 31.1714 18.2735 31.1717 17.9734C31.1721 17.6733 31.2445 17.3776 31.383 17.1103C31.5215 16.8431 31.7222 16.612 31.9686 16.4359L34.2091 14.8049C34.5328 14.5716 34.7743 14.2443 34.8997 13.8689C35.0252 13.4935 35.0283 13.0888 34.9086 12.7115C34.0854 10.1076 32.6801 7.71887 30.7963 5.72135C30.5239 5.43424 30.168 5.23746 29.7774 5.15811C29.3869 5.07876 28.9811 5.12074 28.6157 5.27828L26.0809 6.3776C25.803 6.497 25.5006 6.55028 25.198 6.53312C24.8954 6.51596 24.6012 6.42884 24.3391 6.27881C24.0769 6.12878 23.8543 5.92005 23.6892 5.66949C23.524 5.41894 23.421 5.13358 23.3884 4.83649L23.081 2.11388C23.038 1.71969 22.8707 1.3487 22.6027 1.05313C22.3347 0.757563 21.9794 0.552284 21.5869 0.466184C20.2493 0.17151 18.8841 0.0152688 17.5136 0C16.135 0.0160943 14.7617 0.172315 13.4156 0.466184C13.0231 0.550812 12.6675 0.755141 12.3993 1.0502C12.1311 1.34525 11.964 1.71606 11.9215 2.11003L11.6128 4.83521C11.5791 5.13274 11.4752 5.41836 11.3094 5.66918C11.1436 5.92 10.9205 6.12906 10.658 6.2796C10.3955 6.43015 10.101 6.51801 9.79784 6.53614C9.49474 6.55428 9.19153 6.50218 8.91252 6.38402L6.37765 5.28342C6.0119 5.13026 5.60735 5.09123 5.21843 5.17159C4.82951 5.25195 4.47489 5.44785 4.2023 5.7329C2.31825 7.73236 0.911825 10.1221 0.0860636 12.7269C-0.0314653 13.1032 -0.0274011 13.5062 0.0976933 13.8801C0.222788 14.254 0.462721 14.5804 0.78426 14.8139L3.03126 16.4474C3.27603 16.625 3.47502 16.8568 3.61217 17.1242C3.74931 17.3916 3.82077 17.687 3.82077 17.9866C3.82077 18.2862 3.74931 18.5816 3.61217 18.849C3.47502 19.1164 3.27603 19.3482 3.03126 19.5258L0.78426 21.1632C0.461505 21.3972 0.220876 21.7246 0.0959464 22.0999C-0.0289837 22.4752 -0.0319833 22.8795 0.0873661 23.2565C0.912746 25.8631 2.31918 28.2546 4.2036 30.2557C4.38275 30.4456 4.59995 30.5967 4.84145 30.6995C5.08295 30.8023 5.34347 30.8546 5.60651 30.8529C5.87094 30.8529 6.13276 30.7989 6.37635 30.6949L8.92294 29.5918C9.2007 29.4734 9.50274 29.421 9.80479 29.4387C10.1068 29.4564 10.4005 29.5436 10.6621 29.6935C10.9237 29.8434 11.146 30.0517 11.3111 30.3017C11.4762 30.5517 11.5796 30.8363 11.6128 31.1329L11.9189 33.8632C11.9634 34.2506 12.128 34.6151 12.3902 34.907C12.6525 35.1989 12.9996 35.4026 13.3844 35.4929ZM20.55 33.0965C18.5402 33.5029 16.4676 33.5029 14.4577 33.0965L14.2037 30.8619C14.0795 29.7687 13.5508 28.7591 12.7187 28.0262C12.0673 27.4607 11.2669 27.0883 10.41 26.9519C9.55305 26.8156 8.67448 26.9209 7.87565 27.2557L5.78366 28.1547C4.43415 26.6311 3.39564 24.8651 2.72514 22.9534L4.58005 21.6024C5.15312 21.1861 5.61895 20.6428 5.93999 20.0164C6.26103 19.39 6.42829 18.698 6.42829 17.9962C6.42829 17.2944 6.26103 16.6024 5.93999 15.976C5.61895 15.3496 5.15312 14.8064 4.58005 14.39L2.72905 13.0429C3.40034 11.1331 4.43879 9.3689 5.78757 7.84678L7.87174 8.74576C8.44619 8.99585 9.06742 9.12447 9.69539 9.12333C10.8137 9.11987 11.8916 8.71132 12.7243 7.97539C13.557 7.23945 14.0863 6.22746 14.2115 5.13187L14.4642 2.88828C15.4724 2.69565 16.4963 2.59291 17.5214 2.58006C18.5401 2.59291 19.5561 2.69565 20.5565 2.88828L20.7988 5.12288C20.9195 6.21918 21.447 7.23278 22.2799 7.96879C22.9317 8.5378 23.7343 8.91236 24.5938 9.04879C25.4534 9.18522 26.3346 9.0779 27.1347 8.73934L29.2188 7.84036C30.5695 9.36206 31.609 11.1269 32.28 13.0377L30.4264 14.3811C29.8503 14.7959 29.3818 15.339 29.0588 15.9661C28.7357 16.5931 28.5674 17.2865 28.5674 17.9898C28.5674 18.6931 28.7357 19.3865 29.0588 20.0136C29.3818 20.6406 29.8503 21.1837 30.4264 21.5986L32.2787 22.947C31.6071 24.8542 30.5701 26.6165 29.2241 28.138L27.1399 27.239C26.4877 26.9529 25.7761 26.8229 25.0632 26.8599C24.3503 26.8968 23.6564 27.0995 23.0382 27.4515C22.42 27.8034 21.8951 28.2946 21.5063 28.8849C21.1176 29.4752 20.876 30.1478 20.8014 30.8477L20.55 33.0965Z" fill="#A7EF2B"/>
</g>
</svg>
