<svg width="46" height="45" viewBox="0 0 46 45" fill="none" xmlns="http://www.w3.org/2000/svg">
<g id="ant-design:dislike-outlined">
<path id="Vector" d="M39.4854 21.5464C39.6436 21.0191 39.7227 20.4742 39.7227 19.9204C39.7227 18.6768 39.314 17.4815 38.5757 16.5059C38.7339 15.9786 38.813 15.4336 38.813 14.8799C38.813 13.6363 38.4043 12.441 37.666 11.4654C37.8242 10.938 37.9033 10.3931 37.9033 9.83939C37.9033 7.57181 36.5542 5.52836 34.4624 4.63627C34.0947 4.47775 33.6982 4.39696 33.2978 4.39896H6.88232C6.10449 4.39896 5.47607 5.02738 5.47607 5.80521V21.8013C5.47607 22.5791 6.10449 23.2076 6.88232 23.2076H12.5645L16.335 36.8658C16.9414 39.0674 18.9629 40.6055 21.248 40.6055C22.5532 40.6055 23.7705 40.0869 24.6714 39.1377C25.5723 38.1929 26.0337 36.9536 25.9678 35.6485L25.7041 30.2476H36.2466C36.7783 30.2476 37.2969 30.107 37.7539 29.8389C39.5293 28.8062 40.6323 26.9341 40.6323 24.961C40.6323 23.7173 40.2236 22.522 39.4854 21.5464ZM8.64014 20.0391V7.55863H12.1997V20.0391H8.64014ZM36.2026 27.0879H22.3862L22.8081 35.8067C22.8345 36.3296 22.6016 36.8218 22.1665 37.147C21.8984 37.3448 21.5688 37.4458 21.2393 37.4414C20.8182 37.4374 20.4098 37.2968 20.0754 37.0409C19.741 36.7849 19.4987 36.4274 19.3848 36.022L15.0122 20.1797V7.55863H33.2671C33.7064 7.75549 34.0794 8.07505 34.3413 8.47889C34.6033 8.88273 34.743 9.35364 34.7437 9.835C34.7437 10.2613 34.6426 10.6656 34.4404 11.0347L33.8296 12.1509L34.792 12.9859C35.0629 13.2205 35.28 13.5107 35.4287 13.8368C35.5773 14.1629 35.6539 14.5172 35.6533 14.8755C35.6533 15.3018 35.5522 15.7061 35.3501 16.0752L34.7393 17.1914L35.7017 18.0264C35.9725 18.261 36.1897 18.5512 36.3383 18.8773C36.487 19.2034 36.5636 19.5577 36.563 19.9161C36.563 20.3423 36.4619 20.7466 36.2598 21.1158L35.6445 22.2364L36.6069 23.0713C36.8778 23.3059 37.095 23.5962 37.2436 23.9222C37.3922 24.2483 37.4689 24.6026 37.4683 24.961C37.4683 25.8003 36.9849 26.6089 36.2026 27.0879Z" fill="white"/>
</g>
</svg>
