<svg width="17" height="19" viewBox="0 0 17 19" fill="none" xmlns="http://www.w3.org/2000/svg">
<g id="fluent:gif-20-filled">
<path id="Vector" d="M13.1551 3.38013C14.308 3.38013 15.2513 4.40406 15.3145 5.69367L15.3179 5.83342V13.0035C15.3179 14.3121 14.4153 15.3809 13.2774 15.4533L13.1551 15.4568H4.17151C3.01862 15.4568 2.07533 14.4329 2.01212 13.1432L2.00879 13.0035V5.83342C2.00879 4.52482 2.91131 3.45604 4.04841 3.38358L4.17151 3.38013H13.1551ZM6.04394 6.83233C4.65147 6.83233 3.67242 7.96926 3.67242 9.42019C3.67242 10.834 4.71719 12.0063 6.04394 12.0063C7.04628 12.0063 7.76414 11.3179 7.82735 10.5977L7.83151 10.4941V9.41932L7.82403 9.34169C7.80475 9.2528 7.75992 9.17206 7.69546 9.11015C7.63101 9.04823 7.54996 9.00805 7.46302 8.99491L7.3815 8.98801L6.61789 8.98715L6.53637 8.99405C6.43651 9.00826 6.34472 9.05868 6.27727 9.13636C6.20982 9.21404 6.17107 9.31398 6.16788 9.41846C6.16788 9.6298 6.32675 9.80664 6.53637 9.84287L6.61789 9.84977L6.93232 9.85063V10.4941L6.9265 10.5632C6.87659 10.8409 6.54053 11.1437 6.04477 11.1437C5.24789 11.1437 4.57245 10.3846 4.57245 9.41932C4.57245 8.41351 5.19049 7.69495 6.04477 7.69495C6.42907 7.69495 6.73185 7.75274 6.95478 7.86057C7.0603 7.91273 7.18083 7.922 7.29262 7.88655C7.40441 7.8511 7.49933 7.77351 7.55868 7.66907C7.67014 7.456 7.58114 7.19722 7.35904 7.09025C6.99886 6.916 6.5605 6.83233 6.04477 6.83233H6.04394ZM9.49515 6.8306C9.3978 6.83057 9.30353 6.86595 9.22875 6.93057C9.15397 6.9952 9.10342 7.08498 9.08589 7.18428L9.07924 7.26191V11.575L9.08589 11.6526C9.10326 11.7521 9.15374 11.8421 9.22854 11.9068C9.30334 11.9716 9.39769 12.0071 9.49515 12.0071C9.5926 12.0071 9.68696 11.9716 9.76176 11.9068C9.83655 11.8421 9.88704 11.7521 9.9044 11.6526L9.91106 11.575V7.26191L9.9044 7.18428C9.88688 7.08498 9.83633 6.9952 9.76154 6.93057C9.68676 6.86595 9.59249 6.83057 9.49515 6.8306ZM13.2383 6.8306H11.5747C11.4773 6.83057 11.3831 6.86595 11.3083 6.93057C11.2335 6.9952 11.183 7.08498 11.1654 7.18428L11.1588 7.26191V11.575L11.1654 11.6526C11.1828 11.7521 11.2333 11.8421 11.3081 11.9068C11.3829 11.9716 11.4772 12.0071 11.5747 12.0071C11.6721 12.0071 11.7665 11.9716 11.8413 11.9068C11.9161 11.8421 11.9666 11.7521 11.9839 11.6526L11.9906 11.575V10.2811H13.2383L13.3132 10.2742C13.4091 10.2562 13.4958 10.2038 13.5583 10.1263C13.6208 10.0487 13.655 9.95083 13.655 9.84977C13.655 9.74871 13.6208 9.65086 13.5583 9.57329C13.4958 9.49572 13.4091 9.44337 13.3132 9.42536L13.2383 9.41846H11.9906V7.69322H13.2383L13.3132 7.68632C13.4091 7.66832 13.4958 7.61596 13.5583 7.53839C13.6208 7.46083 13.655 7.36297 13.655 7.26191C13.655 7.16085 13.6208 7.063 13.5583 6.98543C13.4958 6.90786 13.4091 6.85551 13.3132 6.8375L13.2383 6.8306Z" fill="#A7EF2B"/>
</g>
</svg>
