<svg width="36" height="35" viewBox="0 0 36 35" fill="none" xmlns="http://www.w3.org/2000/svg">
<g id="iconos bco">
<path id="Vector" d="M25.8667 0C22.6401 0 19.8151 1.61913 18.0542 4.35598C16.2933 1.61913 13.4683 0 10.2417 0C7.6733 0.00337818 5.21093 1.1955 3.3948 3.31482C1.57867 5.43414 0.557094 8.30758 0.554199 11.3047C0.554199 24.0682 16.7714 34.3993 17.462 34.8259C17.644 34.9402 17.8475 35 18.0542 35C18.2609 35 18.4644 34.9402 18.6464 34.8259C19.337 34.3993 35.5542 24.0682 35.5542 11.3047C35.5513 8.30758 34.5297 5.43414 32.7136 3.31482C30.8975 1.1955 28.4351 0.00337818 25.8667 0ZM18.0542 31.8721C15.2011 29.9321 3.0542 21.0943 3.0542 11.3047C3.05668 9.08116 3.81473 6.94948 5.16211 5.37716C6.50949 3.80485 8.33622 2.92025 10.2417 2.91735C13.2808 2.91735 15.8323 4.80634 16.8979 7.84039C16.9921 8.10793 17.1523 8.33675 17.3582 8.4978C17.5641 8.65884 17.8063 8.74482 18.0542 8.74482C18.3021 8.74482 18.5443 8.65884 18.7502 8.4978C18.9561 8.33675 19.1163 8.10793 19.2104 7.84039C20.2761 4.80087 22.8276 2.91735 25.8667 2.91735C27.7722 2.92025 29.5989 3.80485 30.9463 5.37716C32.2937 6.94948 33.0517 9.08116 33.0542 11.3047C33.0542 21.0797 20.9042 29.9302 18.0542 31.8721Z" fill="#A7EF2B"/>
</g>
</svg>
