<svg width="50" height="40" viewBox="0 0 50 40" fill="none" xmlns="http://www.w3.org/2000/svg">
<path d="M28.6327 22.564L31.1671 20.6641C34.1713 18.4097 35.5011 13.8639 34.8293 10.1707C31.1349 9.49893 26.589 10.8287 24.3359 13.8329L22.436 16.3673M28.6327 22.564L24.295 25.6623L19.3377 20.705L22.436 16.3673M28.6327 22.564V25.8693C28.6327 26.9419 28.2848 27.9856 27.6412 28.8437L26.7737 30L25.5343 28.7607M22.436 16.3673H19.1307C18.0581 16.3673 17.0144 16.7152 16.1563 17.3588L15 18.2263L16.2393 19.4657M20.577 27.5213L16.2393 28.7607L17.6844 24.423M29.2523 16.987C29.581 16.987 29.8963 16.8564 30.1287 16.624C30.3611 16.3916 30.4917 16.0763 30.4917 15.7477C30.4917 15.419 30.3611 15.1037 30.1287 14.8713C29.8963 14.6389 29.581 14.5083 29.2523 14.5083C28.9237 14.5083 28.6084 14.6389 28.376 14.8713C28.1436 15.1037 28.013 15.419 28.013 15.7477C28.013 16.0763 28.1436 16.3916 28.376 16.624C28.6084 16.8564 28.9237 16.987 29.2523 16.987Z" stroke="#FAF3FE" stroke-width="2" stroke-linecap="round" stroke-linejoin="round"/>
</svg>
