<svg width="17" height="17" viewBox="0 0 17 17" fill="none" xmlns="http://www.w3.org/2000/svg">
<path d="M0.5 1.14414L1.65315 0L16.7162 15.0631L15.5721 16.2162L12.2658 12.9099C11.7072 13.5135 10.8964 14.009 9.95946 14.2523V16.2162H7.25676V14.2523C5.42793 13.7928 4.1036 12.4234 4.1036 10.8108H5.90541C5.90541 11.7838 7.13964 12.6126 8.60811 12.6126C9.62613 12.6126 10.536 12.2162 10.9955 11.6396L8.31982 8.96396C6.42793 8.48649 4.1036 7.88288 4.1036 5.40541C4.1036 5.1982 4.1036 5 4.16667 4.81081L0.5 1.14414ZM7.25676 1.96396V0H9.95946V1.96396C11.7883 2.42342 13.1126 3.79279 13.1126 5.40541H11.3108C11.3108 4.43243 10.0766 3.6036 8.60811 3.6036C8.27478 3.6036 7.95946 3.64865 7.66216 3.72072L6.26577 2.32432L7.25676 1.96396Z" fill="#FAF3FE"/>
</svg>
