<svg width="20" height="20" viewBox="0 0 20 20" fill="none" xmlns="http://www.w3.org/2000/svg">
<g id="iconamoon:eye-off">
<g id="Group">
<path id="Vector" d="M8.94163 4.22734C9.29293 4.18659 9.6463 4.16628 9.99996 4.16651C13.8866 4.16651 17 6.58567 18.3333 9.99984C18.0105 10.8303 17.5745 11.6122 17.0375 12.3232M5.43329 5.43234C3.73329 6.46984 2.41663 8.07734 1.66663 9.99984C2.99996 13.414 6.11329 15.8332 9.99996 15.8332C11.6101 15.8417 13.1909 15.4032 14.5666 14.5665M8.23329 8.23317C8.00113 8.46534 7.81696 8.74096 7.69131 9.0443C7.56567 9.34764 7.501 9.67276 7.501 10.0011C7.501 10.3294 7.56567 10.6545 7.69131 10.9579C7.81696 11.2612 8.00113 11.5368 8.23329 11.769C8.46546 12.0012 8.74108 12.1853 9.04442 12.311C9.34776 12.4366 9.67288 12.5013 10.0012 12.5013C10.3295 12.5013 10.6547 12.4366 10.958 12.311C11.2613 12.1853 11.537 12.0012 11.7691 11.769" stroke="#2B043B" stroke-width="2" stroke-linecap="round" stroke-linejoin="round"/>
<path id="Vector_2" d="M3.33325 3.33325L16.6666 16.6666" stroke="#2B043B" stroke-width="2" stroke-linecap="round"/>
</g>
</g>
</svg>
