<svg width="20" height="21" viewBox="0 0 20 21" fill="none" xmlns="http://www.w3.org/2000/svg">
<path d="M10.6 9.5C10.2 9.4 9.8 9.2 9.5 8.9C9.2 8.8 9.1 8.5 9.1 8.3C9.1 8.1 9.2 7.8 9.4 7.7C9.7 7.5 10 7.3 10.3 7.4C10.9 7.4 11.4 7.7 11.7 8.1L12.6 6.9C12.3 6.6 12 6.4 11.7 6.2C11.4 6 11 5.9 10.6 5.9V4.5H9.4V5.9C8.9 6 8.4 6.3 8 6.7C7.6 7.2 7.3 7.8 7.4 8.4C7.4 9 7.6 9.6 8 10C8.5 10.5 9.2 10.8 9.8 11.1C10.1 11.2 10.5 11.4 10.8 11.6C11 11.8 11.1 12.1 11.1 12.4C11.1 12.7 11 13 10.8 13.3C10.5 13.6 10.1 13.7 9.8 13.7C9.4 13.7 8.9 13.6 8.6 13.3C8.3 13.1 8 12.8 7.8 12.5L6.8 13.6C7.1 14 7.4 14.3 7.8 14.6C8.3 14.9 8.9 15.2 9.5 15.2V16.5H10.6V15C11.2 14.9 11.7 14.6 12.1 14.2C12.6 13.7 12.9 12.9 12.9 12.2C12.9 11.6 12.7 10.9 12.2 10.5C11.7 10 11.2 9.7 10.6 9.5ZM10 2.5C5.6 2.5 2 6.1 2 10.5C2 14.9 5.6 18.5 10 18.5C14.4 18.5 18 14.9 18 10.5C18 6.1 14.4 2.5 10 2.5ZM10 17.4C6.2 17.4 3.1 14.3 3.1 10.5C3.1 6.7 6.2 3.6 10 3.6C13.8 3.6 16.9 6.7 16.9 10.5C16.9 14.3 13.8 17.4 10 17.4Z" fill="#FAF3FE"/>
</svg>
