<svg width="20" height="21" viewBox="0 0 20 21" fill="none" xmlns="http://www.w3.org/2000/svg">
<path d="M5 14.1864C5 14.4124 4.91536 14.6172 4.74609 14.8008C4.57682 14.9844 4.38802 15.0762 4.17969 15.0762C3.94531 15.0762 3.74349 14.9844 3.57422 14.8008C3.40495 14.6172 3.32031 14.4124 3.32031 14.1864C3.32031 13.9322 3.40495 13.7132 3.57422 13.5296C3.74349 13.346 3.94531 13.2542 4.17969 13.2542C4.38802 13.2542 4.57682 13.346 4.74609 13.5296C4.91536 13.7132 5 13.9322 5 14.1864ZM18.3203 1.51691H7.5V1.60165C6.40625 1.91239 5.57292 2.49148 5 3.33894C4.79167 3.33894 4.61589 3.19063 4.47266 2.89402C4.32943 2.59741 4.24479 2.29374 4.21875 1.98301L4.17969 1.51691H2.5C2.5 2.19487 2.64323 2.88696 2.92969 3.59318C3.21615 4.29939 3.65885 4.77962 4.25781 5.03385C4.25781 5.09035 4.24479 5.1751 4.21875 5.28809C4.19271 5.40109 4.17969 5.47171 4.17969 5.49996C2.98177 6.09318 2.14844 7.08188 1.67969 8.46606C1.34115 9.48301 1.02865 10.6059 0.742188 11.8347C0.455729 13.0635 0.260417 14.0169 0.15625 14.6949C0.0520833 15.3728 0 15.7683 0 15.8813C0 16.7288 0.169271 17.3644 0.507812 17.7881C0.898438 18.3813 1.5625 18.6779 2.5 18.6779H5C5.75521 18.6779 6.36068 18.4307 6.81641 17.9364C7.27214 17.442 7.5 16.7853 7.5 15.9661C7.5 15.2881 7.55208 14.3841 7.65625 13.2542H9.17969C9.9349 13.2542 10.612 13 11.2109 12.4915C11.8099 11.983 12.2135 11.3333 12.4219 10.5423H13.3203C14.6484 10.5423 15.599 9.94911 16.1719 8.76267H17.9297C18.1901 8.76267 18.3203 8.6073 18.3203 8.29657C18.3203 7.98583 18.1901 7.83047 17.9297 7.83047H16.6016C16.6016 7.74572 16.6146 7.59741 16.6406 7.38555C16.6667 7.17369 16.6797 7.02538 16.6797 6.94063H20V0.627075H19.1797C18.6068 0.627075 18.3203 0.923685 18.3203 1.51691ZM7.5 3.50843V8.5508C7.00521 8.38131 6.60156 8.06352 6.28906 7.59741C5.97656 7.13131 5.82031 6.61578 5.82031 6.0508C5.82031 5.45758 5.97656 4.92792 6.28906 4.46182C6.60156 3.99572 7.00521 3.67792 7.5 3.50843ZM5 16.8983H2.5C2.10938 16.8983 1.86198 16.8276 1.75781 16.6864C1.70573 16.5734 1.67969 16.3615 1.67969 16.0508C1.99219 13.5367 2.51302 11.192 3.24219 9.01691C3.5026 8.31069 3.86719 7.77397 4.33594 7.40674C4.64844 8.56493 5.33854 9.44063 6.40625 10.0339C6.01562 12.6892 5.82031 14.6666 5.82031 15.9661C5.82031 16.5875 5.54688 16.8983 5 16.8983ZM9.17969 11.4745H7.92969C8.03385 10.9661 8.08594 10.6553 8.08594 10.5423H10.5859C10.3255 11.1638 9.85677 11.4745 9.17969 11.4745ZM13.3203 8.76267H9.17969V3.33894H15V4.22877H11.25C10.9635 4.22877 10.8203 4.38414 10.8203 4.69487C10.8203 4.97736 10.9635 5.1186 11.25 5.1186H15V6.0508H11.25C10.9635 6.0508 10.8203 6.19205 10.8203 6.47453C10.8203 6.78527 10.9635 6.94063 11.25 6.94063H15C15 7.42086 14.8372 7.84459 14.5117 8.21182C14.1862 8.57905 13.7891 8.76267 13.3203 8.76267ZM18.3203 5.1186H16.6797V3.33894H18.3203V5.1186Z" fill="#FAF3FE"/>
</svg>
