<svg width="51" height="50" viewBox="0 0 51 50" fill="none" xmlns="http://www.w3.org/2000/svg">
<g id="bxs:joystick-alt">
<path id="Vector" d="M33.8874 12.5H17.2207C13.9055 12.5 10.7261 13.817 8.38187 16.1612C6.03766 18.5054 4.7207 21.6848 4.7207 25C4.7207 28.3152 6.03766 31.4946 8.38187 33.8388C10.7261 36.183 13.9055 37.5 17.2207 37.5H33.8874C37.2026 37.5 40.382 36.183 42.7262 33.8388C45.0704 31.4946 46.3874 28.3152 46.3874 25C46.3874 21.6848 45.0704 18.5054 42.7262 16.1612C40.382 13.817 37.2026 12.5 33.8874 12.5ZM23.4707 27.0833H19.304V31.25H15.1374V27.0833H10.9707V22.9167H15.1374V18.75H19.304V22.9167H23.4707V27.0833ZM30.7624 31.25C29.9336 31.25 29.1387 30.9208 28.5527 30.3347C27.9666 29.7487 27.6374 28.9538 27.6374 28.125C27.6374 27.2962 27.9666 26.5013 28.5527 25.9153C29.1387 25.3292 29.9336 25 30.7624 25C31.5912 25 32.386 25.3292 32.9721 25.9153C33.5581 26.5013 33.8874 27.2962 33.8874 28.125C33.8874 28.9538 33.5581 29.7487 32.9721 30.3347C32.386 30.9208 31.5912 31.25 30.7624 31.25ZM37.0124 25C36.1836 25 35.3887 24.6708 34.8027 24.0847C34.2166 23.4987 33.8874 22.7038 33.8874 21.875C33.8874 21.0462 34.2166 20.2513 34.8027 19.6653C35.3887 19.0792 36.1836 18.75 37.0124 18.75C37.8412 18.75 38.636 19.0792 39.2221 19.6653C39.8081 20.2513 40.1374 21.0462 40.1374 21.875C40.1374 22.7038 39.8081 23.4987 39.2221 24.0847C38.636 24.6708 37.8412 25 37.0124 25Z" fill="#A7EF2B"/>
</g>
</svg>
