<svg width="18" height="19" viewBox="0 0 18 19" fill="none" xmlns="http://www.w3.org/2000/svg">
<g id="mdi:smiley">
<path id="Vector" d="M9.17259 2.22998C5.33927 2.22998 2.24072 5.4648 2.24072 9.41847C2.24072 11.325 2.97104 13.1534 4.27102 14.5015C4.9147 15.169 5.67886 15.6985 6.51988 16.0598C7.36089 16.421 8.26228 16.607 9.17259 16.607C11.011 16.607 12.7742 15.8496 14.0742 14.5015C15.3741 13.1534 16.1045 11.325 16.1045 9.41847C16.1045 8.47447 15.9252 7.5397 15.5768 6.66756C15.2284 5.79541 14.7178 5.00295 14.0742 4.33544C13.4305 3.66793 12.6663 3.13843 11.8253 2.77717C10.9843 2.41592 10.0829 2.22998 9.17259 2.22998ZM11.5987 6.54308C11.8745 6.54308 12.139 6.65668 12.334 6.85889C12.529 7.06111 12.6385 7.33537 12.6385 7.62135C12.6385 7.90733 12.529 8.18159 12.334 8.3838C12.139 8.58602 11.8745 8.69962 11.5987 8.69962C11.323 8.69962 11.0585 8.58602 10.8635 8.3838C10.6685 8.18159 10.559 7.90733 10.559 7.62135C10.559 7.33537 10.6685 7.06111 10.8635 6.85889C11.0585 6.65668 11.323 6.54308 11.5987 6.54308ZM6.74643 6.54308C7.0222 6.54308 7.28667 6.65668 7.48167 6.85889C7.67667 7.06111 7.78621 7.33537 7.78621 7.62135C7.78621 7.90733 7.67667 8.18159 7.48167 8.3838C7.28667 8.58602 7.0222 8.69962 6.74643 8.69962C6.47067 8.69962 6.2062 8.58602 6.0112 8.3838C5.8162 8.18159 5.70665 7.90733 5.70665 7.62135C5.70665 7.33537 5.8162 7.06111 6.0112 6.85889C6.2062 6.65668 6.47067 6.54308 6.74643 6.54308ZM9.17259 13.3721C7.55746 13.3721 6.18495 12.3226 5.6304 10.8562H12.7148C12.1533 12.3226 10.7877 13.3721 9.17259 13.3721Z" fill="#A7EF2B"/>
</g>
</svg>
