<svg width="40" height="40" viewBox="0 0 40 40" fill="none" xmlns="http://www.w3.org/2000/svg">
<g id="ph:star-light">
<path id="Vector" d="M37.0779 15.2969C36.9488 14.8871 36.7001 14.5253 36.3638 14.258C36.0274 13.9907 35.6188 13.8301 35.1904 13.7969L25.8998 12.9938C25.8436 12.9883 25.7899 12.9676 25.7445 12.9341C25.6992 12.9005 25.6637 12.8553 25.642 12.8032L22.0123 4.15318C21.8442 3.75857 21.5638 3.4221 21.2059 3.18559C20.8481 2.94909 20.4287 2.823 19.9998 2.823C19.5708 2.823 19.1514 2.94909 18.7936 3.18559C18.4358 3.4221 18.1554 3.75857 17.9873 4.15318L14.3576 12.8032C14.3358 12.8553 14.3004 12.9005 14.255 12.9341C14.2096 12.9676 14.1559 12.9883 14.0998 12.9938L4.80914 13.7969C4.38077 13.8301 3.97212 13.9907 3.63576 14.258C3.29939 14.5253 3.05069 14.8871 2.92164 15.2969C2.78497 15.7073 2.77303 16.149 2.88733 16.5662C3.00164 16.9834 3.23705 17.3573 3.56383 17.6407L10.6123 23.7891C10.6554 23.8274 10.6875 23.8767 10.7051 23.9317C10.7227 23.9866 10.7251 24.0453 10.7123 24.1016L8.59351 33.2438C8.49475 33.6647 8.52292 34.1055 8.67449 34.5104C8.82605 34.9153 9.0942 35.2662 9.44508 35.5188C9.79051 35.7737 10.2044 35.9191 10.6333 35.9364C11.0623 35.9537 11.4865 35.8419 11.8513 35.6157L19.8373 30.7719C19.8842 30.7429 19.9383 30.7275 19.9935 30.7275C20.0487 30.7275 20.1028 30.7429 20.1498 30.7719L28.1357 35.6157C28.5043 35.8413 28.9315 35.9528 29.3633 35.9359C29.7952 35.919 30.2124 35.7746 30.5622 35.5208C30.9121 35.2671 31.1789 34.9154 31.3291 34.5102C31.4793 34.1049 31.506 33.6643 31.406 33.2438L29.2935 24.0985C29.2806 24.0422 29.2831 23.9835 29.3007 23.9285C29.3183 23.8736 29.3504 23.8243 29.3935 23.786L36.442 17.6376C36.767 17.3537 37.0009 16.9799 37.114 16.5634C37.2272 16.147 37.2146 15.7063 37.0779 15.2969ZM35.2029 16.2219L28.1545 22.3704C27.8541 22.6317 27.6308 22.97 27.5085 23.3489C27.3863 23.7277 27.3698 24.1328 27.4607 24.5204L29.5732 33.6657C29.5888 33.7271 29.5854 33.7919 29.5633 33.8513C29.5413 33.9108 29.5017 33.9621 29.4498 33.9985C29.4028 34.0361 29.345 34.0578 29.2849 34.0603C29.2247 34.0628 29.1654 34.0461 29.1154 34.0126L21.1294 29.1688C20.789 28.9619 20.3982 28.8524 19.9998 28.8524C19.6013 28.8524 19.2106 28.9619 18.8701 29.1688L10.8841 34.0126C10.8342 34.0461 10.7748 34.0628 10.7146 34.0603C10.6545 34.0578 10.5967 34.0361 10.5498 33.9985C10.4979 33.9621 10.4583 33.9108 10.4362 33.8513C10.4142 33.7919 10.4107 33.7271 10.4263 33.6657L12.5388 24.5204C12.6298 24.1328 12.6132 23.7277 12.491 23.3489C12.3687 22.97 12.1454 22.6317 11.8451 22.3704L4.79664 16.2219C4.74843 16.1809 4.71381 16.1263 4.69735 16.0652C4.68089 16.0041 4.68336 15.9394 4.70445 15.8797C4.72023 15.8203 4.75444 15.7674 4.80217 15.7287C4.8499 15.69 4.90869 15.6673 4.97008 15.6641L14.2623 14.861C14.6601 14.8271 15.041 14.685 15.3638 14.45C15.6866 14.2151 15.939 13.8963 16.0935 13.5282L19.7232 4.87818C19.7484 4.82449 19.7884 4.7791 19.8385 4.7473C19.8886 4.7155 19.9467 4.69862 20.006 4.69862C20.0653 4.69862 20.1234 4.7155 20.1735 4.7473C20.2236 4.7791 20.2636 4.82449 20.2888 4.87818L23.906 13.5282C24.0601 13.8954 24.3115 14.2136 24.6331 14.4485C24.9547 14.6834 25.3343 14.826 25.731 14.861L35.0232 15.6641C35.0846 15.6673 35.1434 15.69 35.1911 15.7287C35.2388 15.7674 35.273 15.8203 35.2888 15.8797C35.3106 15.9388 35.3141 16.0031 35.2988 16.0641C35.2834 16.1252 35.25 16.1802 35.2029 16.2219Z" fill="#F69B12"/>
</g>
</svg>
